<?xml version="1.0" standalone="no"?>
<!DOCTYPE svg PUBLIC "-//W3C//DTD SVG 1.1//EN" "http://www.w3.org/Graphics/SVG/1.1/DTD/svg11.dtd" >
<svg>
<metadata>
Created by FontForge 20140411 at Wed Jun 18 20:46:01 2014
 By houkanshan
Copyright (c) 2014 by Douban (www.douban.com, read@douban.com). All rights reserved.
</metadata>
<defs>
<font id="arkyakumono" horiz-adv-x="2048" >
  <font-face 
    font-family="arkyakumono"
    font-weight="400"
    font-stretch="normal"
    units-per-em="2048"
    panose-1="0 0 0 0 0 0 0 0 0 0"
    ascent="1636"
    descent="-412"
    bbox="82 -427 1868 1685"
    underline-thickness="48"
    underline-position="-418"
    stemh="248"
    stemv="248"
    unicode-range="U+002C-FF3D"
  />
    <missing-glyph />
    <glyph glyph-name="emdash" unicode="&#x2014;" 
d="M180 780h1688v-92h-1688v92z" />
    <glyph glyph-name="quoteleft" unicode="&#x2018;" horiz-adv-x="1024" 
d="M720.325 1513.91c-10.999 -13.999 -22.998 -32.998 -35.9971 -56.9961c-12.999 -23.999 -23.999 -50.9971 -33.998 -79.9951c-9 -28.999 -16.999 -59.9971 -21.999 -91.9951c-2.91309 -19.2227 -4.4668 -38.1074 -4.4668 -56.6533
c0 -13.2871 0.796875 -26.4004 2.4668 -39.3408c18.999 9 37.998 12 55.9971 11c16.999 -1 32.998 -6 45.9971 -14.999c12.999 -9 23.998 -19.999 31.998 -34.998c7 -14.999 10.999 -30.998 10.999 -48.9971c0 -37.998 -10.999 -66.9961 -32.998 -87.9951
c-21.998 -20.998 -48.9971 -30.998 -79.9951 -30.998c-22.998 0 -43.9971 5 -61.9961 14.999c-17.999 9 -32.998 21.999 -45.9971 38.998c-11.999 16.999 -20.999 35.998 -27.998 58.9961c-6 22.999 -9 46.9971 -9 72.9961c0 25.998 4 56.9961 11 90.9941
c6.99902 35.998 17.999 70.9961 30.998 106.993c12.999 35.998 28.998 70.9961 47.9971 104.994c18.999 32.998 38.9971 60.9961 61.9961 83.9941z" />
    <glyph glyph-name="quoteright" unicode="&#x2019;" horiz-adv-x="1024" 
d="M306.333 1025c11 14 23 33 36 57s24 51 34 80c9 29 17 60 22 92c2.91309 19.2246 4.46777 38.1104 4.46777 56.6572c0 13.2881 -0.797852 26.4023 -2.46777 39.3428c-19 -9 -38 -12 -56 -11c-17 1 -33 6 -46 15s-24 20 -32 35c-7 15 -11 31 -11 49c0 38 11 67 33 88
s49 31 80 31c23 0 44 -5 62 -15c18 -9 33 -22 46 -39c12 -17 21 -36 28 -59c6 -23 9 -47 9 -73s-4 -57 -11 -91c-7 -36 -18 -71 -31 -107s-29 -71 -48 -105c-19 -33 -39 -61 -62 -84z" />
    <glyph glyph-name="quotedblleft" unicode="&#x201c;" horiz-adv-x="1224" 
d="M1074 1514c-17 -21 -17 -21 -37 -57c-19 -36 -19 -36 -33 -80c-15 -44 -15 -44 -23 -93c-4.28711 -25.7227 -6.27734 -37.6611 -6.27734 -50.4355c0 -11.0625 1.49316 -22.752 4.27734 -44.5645c29 13 29 13 56 11c26 -2 26 -2 46 -15s20 -13 32 -35
c11 -22 11 -22 11 -49c0 -57 0 -57 -33 -88s-33 -31 -80 -31c-35 0 -35 0 -62 14c-27 15 -27 15 -45 40c-19 25 -19 25 -28 59c-10 34 -10 34 -10 73s0 39 11 91c11 53 11 53 31 107s20 54 48 104c28 51 28 51 62 85zM713 1514c-17 -21 -17 -21 -36 -57s-19 -36 -34 -80
c-14 -44 -14 -44 -22 -93c-4.28711 -25.7227 -6.27734 -37.6611 -6.27734 -50.4355c0 -11.0625 1.49316 -22.752 4.27734 -44.5645c29 13 29 13 55 11c27 -2 27 -2 47 -15s20 -13 31 -35c12 -22 12 -22 12 -49c0 -57 0 -57 -33 -88s-33 -31 -80 -31c-35 0 -35 0 -62 14
c-27 15 -27 15 -46 40c-18 25 -18 25 -28 59c-9 34 -9 34 -9 73s0 39 11 91c11 53 11 53 31 107s20 54 48 104c28 51 28 51 62 85z" />
    <glyph glyph-name="quotedblright" unicode="&#x201d;" horiz-adv-x="1224" 
d="M511.333 1025c11 14 23 33 36 57s24 51 34 80c9 29 17 60 22 92c2.91309 19.2246 4.46777 38.1104 4.46777 56.6572c0 13.2881 -0.797852 26.4023 -2.46777 39.3428c-19 -9 -38 -12 -56 -11c-17 1 -33 6 -46 15s-24 20 -32 35c-7 15 -11 31 -11 49c0 38 11 67 33 88
s49 31 80 31c23 0 44 -5 62 -15c18 -9 33 -22 46 -39c12 -17 21 -36 28 -59c6 -23 9 -47 9 -73s-4 -57 -11 -91c-7 -36 -18 -71 -31 -107s-29 -71 -48 -105c-19 -33 -39 -61 -62 -84zM151.333 1025c11 14 23 33 36 57s24 51 34 80c9 29 17 60 22 92
c2.91309 19.2246 4.46777 38.1104 4.46777 56.6572c0 13.2881 -0.797852 26.4023 -2.46777 39.3428c-19 -9 -38 -12 -56 -11c-17 1 -33 6 -46 15s-24 20 -32 35c-7 15 -11 31 -11 49c0 38 11 67 33 88s49 31 80 31c23 0 44 -5 62 -15c18 -9 33 -22 46 -39
c12 -17 21 -36 28 -59c6 -23 9 -47 9 -73s-4 -57 -11 -91c-7 -36 -18 -71 -31 -107s-29 -71 -48 -105c-19 -33 -39 -61 -62 -84z" />
    <glyph glyph-name="comma" unicode="," horiz-adv-x="1024" 
d="M306.333 -325c11 14 23 33 36 57s24 51 34 80c9 29 17 60 22 92c2.91309 19.2246 4.46777 38.1104 4.46777 56.6572c0 13.2881 -0.797852 26.4023 -2.46777 39.3428c-19 -9 -38 -12 -56 -11c-17 1 -33 6 -46 15s-24 20 -32 35c-7 15 -11 31 -11 49c0 38 11 67 33 88
s49 31 80 31c23 0 44 -5 62 -15c18 -9 33 -22 46 -39c12 -17 21 -36 28 -59c6 -23 9 -47 9 -73s-4 -57 -11 -91c-7 -36 -18 -71 -31 -107s-29 -71 -48 -105c-19 -33 -39 -61 -62 -84z" />
    <glyph glyph-name="uni3001" unicode="&#x3001;" 
d="M253.428 241.604l106.496 96.2568c167.937 -135.168 272.384 -245.761 411.648 -434.177l-114.688 -108.544c-131.072 190.464 -249.855 319.488 -403.456 446.464z" />
    <glyph glyph-name="periodcentered" unicode="&#xb7;" horiz-adv-x="1000" 
d="M500 462c45 0 82 -37 82 -82s-37 -82 -82 -82s-82 37 -82 82s37 82 82 82z" />
    <glyph glyph-name="uni3014" unicode="&#x3014;" 
d="M1288.09 -3.40039v1228.8l360.448 329.728h186.368l-407.552 -372.736v-1142.78l407.552 -372.736h-186.368z" />
    <glyph glyph-name="uni3015" unicode="&#x3015;" 
d="M759.908 -4.40039l-360.448 -329.728h-186.368l407.552 372.736v1142.78l-407.552 372.736h186.368l360.448 -329.728v-1228.8z" />
    <glyph glyph-name="uni3016" unicode="&#x3016;" 
d="M1104.41 -365.896v1953.79h690.176c-88.0635 -112.641 -133.12 -186.368 -182.271 -299.009c-83.9688 -188.416 -124.929 -411.647 -124.929 -677.888c0 -415.744 92.1602 -708.608 307.2 -976.896h-690.176zM1215 -259.4h368.64
c-145.407 256 -208.896 516.097 -208.896 874.496c0 350.208 61.4404 606.208 210.944 866.305h-370.688v-1740.8z" />
    <glyph glyph-name="uni3017" unicode="&#x3017;" 
d="M943.588 -367.896h-690.176c215.04 268.288 307.2 559.104 307.2 976.896c0 288.768 -45.0566 516.096 -143.36 716.8c-47.1035 98.3037 -83.9678 157.696 -163.84 260.097h690.176v-1953.79zM832.996 -261.4v1740.8h-370.688
c149.504 -260.097 210.944 -514.049 210.944 -868.353c0 -358.399 -61.4404 -616.448 -208.896 -872.448h368.64z" />
    <glyph glyph-name="uni300C" unicode="&#x300c;" 
d="M1391.4 573.996h-139.265v1067.01h542.721v-126.976h-403.456v-940.032z" />
    <glyph glyph-name="uni300D" unicode="&#x300d;" 
d="M656.596 882.004h139.265v-1067.01h-542.721v126.976h403.456v940.032z" />
    <glyph glyph-name="uni300E" unicode="&#x300e;" 
d="M1487.71 427.84h-321.536v1208.32h667.648v-311.296h-346.112v-897.024zM1377.12 536.384v892.928h346.112v102.4h-446.465v-995.328h100.353z" />
    <glyph glyph-name="uni300F" unicode="&#x300f;" 
d="M560.288 970.636h321.536v-1206.27h-667.648v311.296h346.112v894.976zM670.88 862.092v-890.88h-346.112v-102.4h446.465v993.28h-100.353z" />
    <glyph glyph-name="uni3010" unicode="&#x3010;" 
d="M1275.81 -366.896v1953.79h528.385c-122.881 -165.889 -167.937 -245.761 -217.089 -380.929c-61.4395 -174.08 -90.1113 -364.544 -90.1113 -595.968s28.6719 -421.888 90.1113 -595.968c49.1523 -135.168 94.208 -215.04 217.089 -380.929h-528.385z" />
    <glyph glyph-name="uni3011" unicode="&#x3011;" 
d="M782.192 -366.896h-528.385c122.881 165.889 167.937 245.761 217.089 380.929c61.4395 174.08 90.1113 360.448 90.1113 595.968s-28.6719 421.888 -90.1113 595.968c-49.1523 135.168 -94.208 215.04 -217.089 380.929h528.385v-1953.79z" />
    <glyph glyph-name="uni3008" unicode="&#x3008;" 
d="M1634.61 -341.128l-552.96 944.128l552.96 944.128h159.743l-552.96 -944.128l552.96 -944.128h-159.743z" />
    <glyph glyph-name="uni3009" unicode="&#x3009;" 
d="M413.392 -332.128h-159.743l552.96 944.128l-552.96 944.128h159.743l552.96 -944.128z" />
    <glyph glyph-name="uni300A" unicode="&#x300a;" 
d="M1217.11 610l444.416 944.128h133.12l-446.465 -944.128l446.465 -944.128h-133.12zM971.352 610l446.465 944.128h131.071l-446.464 -944.128l446.464 -944.128h-131.071z" />
    <glyph glyph-name="uni300B" unicode="&#x300b;" 
d="M830.888 615l-446.464 -944.128h-131.072l446.465 944.128l-446.465 944.128h131.072zM1076.65 615l-446.465 -944.128h-131.071l444.416 944.128l-444.416 944.128h131.071z" />
    <glyph glyph-name="uni30FB" unicode="&#x30fb;" horiz-adv-x="1000" 
d="M500 462c45 0 82 -37 82 -82s-37 -82 -82 -82s-82 37 -82 82s37 82 82 82z" />
    <glyph glyph-name="uniFF1A" unicode="&#xff1a;" 
d="M494 229c0 -18 -3 -35 -10 -51s-16 -30 -26 -42c-12 -12 -24 -21 -38 -28c-15 -7 -30 -10 -46 -10s-31 3 -46 10c-14 7 -26 16 -38 28c-10 12 -19 26 -26 42c-6 16 -9 33 -9 51c0 19 3 36 10 53c7 16 15 30 27 42c10 12 23 22 38 28c15 8 30 11 46 11c17 0 32 -3 46 -11
c15 -6 27 -16 38 -28s19 -26 25 -42c6 -17 9 -34 9 -53zM494 1054c0 -18 -3 -35 -10 -51s-16 -30 -26 -42c-12 -12 -24 -21 -38 -28c-15 -7 -30 -10 -46 -10s-31 3 -46 10c-14 7 -26 16 -38 28c-10 12 -19 26 -26 42c-6 16 -9 33 -9 51c0 19 3 36 10 52c7 17 15 31 27 43
c10 12 23 21 38 29c15 6 30 10 46 10c17 0 32 -4 46 -10c15 -8 27 -17 38 -29s19 -26 25 -43c6 -16 9 -33 9 -52z" />
    <glyph glyph-name="uniFF1B" unicode="&#xff1b;" 
d="M306 -187c11 14 23 33 36 57s24 51 34 80c9 29 17 60 22 92c3 19 4 38 4 57c0 13 0 26 -2 39c-19 -9 -38 -12 -56 -11c-17 1 -33 6 -46 15s-24 20 -32 35c-7 15 -11 31 -11 49c0 38 11 67 33 88s49 31 80 31c23 0 44 -5 62 -15c18 -9 33 -22 46 -39c12 -17 21 -36 28 -59
c6 -23 9 -47 9 -73s-4 -57 -11 -91c-7 -36 -18 -71 -31 -107s-29 -71 -48 -105c-19 -33 -39 -61 -62 -84zM494 1061c0 -18 -3 -35 -10 -51s-16 -30 -26 -42c-12 -12 -24 -21 -38 -28c-15 -7 -30 -10 -46 -10s-31 3 -46 10c-14 7 -26 16 -38 28c-10 12 -19 26 -26 42
c-6 16 -9 33 -9 51c0 19 3 36 10 53c7 16 15 30 27 42c10 12 23 22 38 28c15 8 30 11 46 11c17 0 32 -3 46 -11c15 -6 27 -16 38 -28s19 -26 25 -42c6 -17 9 -34 9 -53z" />
    <glyph glyph-name="uniFF0E" unicode="&#xff0e;" 
d="M493 98c0 -18 -3.33301 -35 -10 -51s-15.5 -30 -26.5 -42s-23.667 -21.333 -38 -28s-29.5 -10 -45.5 -10s-31.167 3.33301 -45.5 10s-27 16 -38 28s-19.667 26 -26 42s-9.5 33 -9.5 51c0 18.667 3.33301 36.167 10 52.5s15.5 30.5 26.5 42.5s23.833 21.5 38.5 28.5
s30 10.5 46 10.5c16.667 0 32.167 -3.5 46.5 -10.5s26.833 -16.5 37.5 -28.5s19 -26.167 25 -42.5s9 -33.833 9 -52.5z" />
    <glyph glyph-name="uniFF0C" unicode="&#xff0c;" 
d="M306.333 -325c11 14 23 33 36 57s24 51 34 80c9 29 17 60 22 92c2.91309 19.2246 4.46777 38.1104 4.46777 56.6572c0 13.2881 -0.797852 26.4023 -2.46777 39.3428c-19 -9 -38 -12 -56 -11c-17 1 -33 6 -46 15s-24 20 -32 35c-7 15 -11 31 -11 49c0 38 11 67 33 88
s49 31 80 31c23 0 44 -5 62 -15c18 -9 33 -22 46 -39c12 -17 21 -36 28 -59c6 -23 9 -47 9 -73s-4 -57 -11 -91c-7 -36 -18 -71 -31 -107s-29 -71 -48 -105c-19 -33 -39 -61 -62 -84z" />
    <glyph glyph-name="period" unicode="." horiz-adv-x="504" 
d="M370 98c0 -18 -3.33333 -35 -10 -51s-15.5 -30 -26.5 -42s-23.6667 -21.3333 -38 -28s-29.5 -10 -45.5 -10s-31.1667 3.33333 -45.5 10s-27 16 -38 28s-19.6667 26 -26 42s-9.5 33 -9.5 51c0 18.6667 3.33333 36.1667 10 52.5s15.5 30.5 26.5 42.5
s23.8333 21.5 38.5 28.5s30 10.5 46 10.5c16.6667 0 32.1667 -3.5 46.5 -10.5s26.8333 -16.5 37.5 -28.5s19 -26.1667 25 -42.5s9 -33.8333 9 -52.5z" />
    <glyph glyph-name="colon" unicode=":" horiz-adv-x="512" 
d="M376 98c0 -18 -3.33333 -35 -10 -51s-15.5 -30 -26.5 -42s-23.6667 -21.3333 -38 -28s-29.5 -10 -45.5 -10s-31.1667 3.33333 -45.5 10s-27 16 -38 28s-19.6667 26 -26 42s-9.5 33 -9.5 51c0 18.6667 3.33333 36.1667 10 52.5s15.5 30.5 26.5 42.5
s23.8333 21.5 38.5 28.5s30 10.5 46 10.5c16.6667 0 32.1667 -3.5 46.5 -10.5s26.8333 -16.5 37.5 -28.5s19 -26.1667 25 -42.5s9 -33.8333 9 -52.5zM376 923c0 -18 -3.33333 -35 -10 -51s-15.5 -30 -26.5 -42s-23.6667 -21.3333 -38 -28s-29.5 -10 -45.5 -10
s-31.1667 3.33333 -45.5 10s-27 16 -38 28s-19.6667 26 -26 42s-9.5 33 -9.5 51c0 18.6667 3.33333 36.1667 10 52.5s15.5 30.5 26.5 42.5s23.8333 21.5 38.5 28.5s30 10.5 46 10.5c16.6667 0 32.1667 -3.5 46.5 -10.5s26.8333 -16.5 37.5 -28.5s19 -26.1667 25 -42.5
s9 -33.8333 9 -52.5z" />
    <glyph glyph-name="semicolon" unicode=";" horiz-adv-x="539" 
d="M194 -325c11 14 23 33 36 57s24 51 34 80c9 29 17 60 22 92c2.91288 19.225 4.46818 38.1106 4.46818 56.6568c0 13.2886 -0.798482 26.403 -2.46818 39.3432c-19 -9 -38 -12 -56 -11c-17 1 -33 6 -46 15s-24 20 -32 35c-7 15 -11 31 -11 49c0 38 11 67 33 88
s49 31 80 31c23 0 44 -5 62 -15c18 -9 33 -22 46 -39c12 -17 21 -36 28 -59c6 -23 9 -47 9 -73s-4 -57 -11 -91c-7 -36 -18 -71 -31 -107s-29 -71 -48 -105c-19 -33 -39 -61 -62 -84zM382 923c0 -18 -3 -35 -10 -51s-16 -30 -26 -42c-12 -12 -24 -21 -38 -28
c-15 -7 -30 -10 -46 -10s-31 3 -46 10c-14 7 -26 16 -38 28c-10 12 -19 26 -26 42c-6 16 -9 33 -9 51c0 19 3 36 10 53c7 16 15 30 27 42c10 12 23 22 38 28c15 8 30 11 46 11c17 0 32 -3 46 -11c15 -6 27 -16 38 -28s19 -26 25 -42c6 -17 9 -34 9 -53z" />
    <glyph glyph-name="uniFF09" unicode="&#xff09;" 
d="M562 640c0 192.667 -25.167 372 -75.5 538s-128.167 319 -233.5 459l51 47c34 -31.333 69 -68.167 105 -110.5s71.167 -89.5 105.5 -141.5s67 -108.333 98 -169s58 -124.5 81 -191.5s41.333 -136.667 55 -209s20.5 -146.5 20.5 -222.5s-6.83301 -150.667 -20.5 -224
s-32 -144.5 -55 -213.5s-50 -134.667 -81 -197s-63.667 -120.333 -98 -174s-69.5 -102.5 -105.5 -146.5s-71 -81.333 -105 -112l-51 47c106 141.333 184 298.167 234 470.5c50 172.333 75 355.5 75 549.5z" />
    <glyph glyph-name="uniFF08" unicode="&#xff08;" 
d="M1486 618c0 -192.667 25.167 -372 75.5 -538s128.167 -319 233.5 -459l-51 -47c-34 31.333 -69 68.167 -105 110.5s-71.167 89.5 -105.5 141.5s-67 108.333 -98 169s-58 124.5 -81 191.5s-41.333 136.667 -55 209s-20.5 146.5 -20.5 222.5s6.83301 150.667 20.5 224
s32 144.5 55 213.5s50 134.667 81 197s63.667 120.333 98 174s69.5 102.5 105.5 146.5s71 81.333 105 112l51 -47c-106 -141.333 -184 -298.167 -234 -470.5c-50 -172.333 -75 -355.5 -75 -549.5z" />
    <glyph glyph-name="uni3002" unicode="&#x3002;" 
d="M561 392.2c169.984 0 307.2 -137.216 307.2 -307.2s-137.216 -307.2 -307.2 -307.2s-307.2 137.216 -307.2 307.2s137.216 307.2 307.2 307.2zM561 275.464c-104.448 0 -190.464 -86.0156 -190.464 -190.464c0 -104.448 86.0156 -190.464 190.464 -190.464
s190.464 86.0156 190.464 190.464c0 104.448 -86.0156 190.464 -190.464 190.464z" />
    <glyph glyph-name="uniFF3D" unicode="&#xff3d;" 
d="M800 -417h-543v123l390 6l9 1810l-403 6v123h549z" />
    <glyph glyph-name="uniFF3B" unicode="&#xff3b;" 
d="M1248 1647h543v-123l-390 -6l-9 -1810l403 -6v-123h-549z" />
    <glyph glyph-name="uniFF1F" unicode="&#xff1f;" 
d="M664 385h-176c8 49 8 65 8 133c0 106 22 174 76 248c41 53 61 71 180 153c74 49 108 78 141 111c45 49 70 106 70 170c0 153 -137 260 -330 260c-133 0 -237 -45 -305 -131c-35 -45 -51 -82 -74 -168l-172 27c43 147 84 219 168 288c92 78 230 121 389 121
c289 0 490 -160 490 -391c0 -86 -27 -164 -78 -229c-33 -43 -66 -72 -158 -136c-119 -86 -153 -114 -182 -155c-37 -51 -53 -109 -53 -189c0 -34 2 -65 6 -112zM478 194h198v-192h-198v192z" />
    <glyph glyph-name="uniFF01" unicode="&#xff01;" 
d="M631 384h-151c4 47 6 90 6 121c0 6 -2 43 -2 98l-19 729c-2 86 -4 147 -12 225h203c-6 -78 -10 -139 -12 -225l-17 -729l-2 -94c0 -37 2 -76 6 -125zM656 1h-199v192h199v-192z" />
    </font>
</defs>
</svg>
